<svg xmlns="http://www.w3.org/2000/svg" width="1440" height="900"><path d="M719,443L662,534L763,472Z" fill="#3fb1c4" stroke="#3fb1c4" stroke-width="1.51"/><path d="M662,534L835,667L763,472Z" fill="#30a1c2" stroke="#30a1c2" stroke-width="1.51"/><path d="M835,667L885,517L763,472Z" fill="#299ac1" stroke="#299ac1" stroke-width="1.51"/><path d="M763,472L861,398L719,443Z" fill="#42b0c3" stroke="#42b0c3" stroke-width="1.51"/><path d="M885,517L861,398L763,472Z" fill="#36a8c3" stroke="#36a8c3" stroke-width="1.51"/><path d="M719,443L530,489L662,534Z" fill="#50b5c2" stroke="#50b5c2" stroke-width="1.51"/><path d="M662,534L530,489L667,662Z" fill="#4caac0" stroke="#4caac0" stroke-width="1.51"/><path d="M562,283L530,489L719,443Z" fill="#66c2c0" stroke="#66c2c0" stroke-width="1.51"/><path d="M667,662L835,667L662,534Z" fill="#3695bc" stroke="#3695bc" stroke-width="1.51"/><path d="M781,225L562,283L719,443Z" fill="#72c6be" stroke="#72c6be" stroke-width="1.51"/><path d="M562,283L501,331L530,489Z" fill="#7acabd" stroke="#7acabd" stroke-width="1.51"/><path d="M861,398L781,225L719,443Z" fill="#5cb8c0" stroke="#5cb8c0" stroke-width="1.51"/><path d="M530,489L447,656L667,662Z" fill="#5aa5ba" stroke="#5aa5ba" stroke-width="1.51"/><path d="M301,336L430,576L530,489Z" fill="#81c8bd" stroke="#81c8bd" stroke-width="1.51"/><path d="M861,398L962,331L781,225Z" fill="#65b4be" stroke="#65b4be" stroke-width="1.51"/><path d="M885,517L962,331L861,398Z" fill="#41a6c1" stroke="#41a6c1" stroke-width="1.51"/><path d="M1064,506L962,331L885,517Z" fill="#3599be" stroke="#3599be" stroke-width="1.51"/><path d="M430,576L447,656L530,489Z" fill="#6eb1bc" stroke="#6eb1bc" stroke-width="1.51"/><path d="M955,847L975,724L835,667Z" fill="#2967ac" stroke="#2967ac" stroke-width="1.51"/><path d="M835,667L975,724L885,517Z" fill="#2280b8" stroke="#2280b8" stroke-width="1.51"/><path d="M725,873L835,667L667,662Z" fill="#3a7bb1" stroke="#3a7bb1" stroke-width="1.51"/><path d="M781,225L631,166L562,283Z" fill="#97d3bb" stroke="#97d3bb" stroke-width="1.51"/><path d="M562,283L333,164L501,331Z" fill="#a9dcb7" stroke="#a9dcb7" stroke-width="1.51"/><path d="M1046,661L1064,506L885,517Z" fill="#2283ba" stroke="#2283ba" stroke-width="1.51"/><path d="M975,724L1046,661L885,517Z" fill="#2376b4" stroke="#2376b4" stroke-width="1.51"/><path d="M593,872L725,873L667,662Z" fill="#4775a7" stroke="#4775a7" stroke-width="1.51"/><path d="M447,656L434,755L667,662Z" fill="#6292b1" stroke="#6292b1" stroke-width="1.51"/><path d="M369,708L434,755L447,656Z" fill="#7896ae" stroke="#7896ae" stroke-width="1.51"/><path d="M434,755L593,872L667,662Z" fill="#5981ab" stroke="#5981ab" stroke-width="1.51"/><path d="M962,331L954,194L781,225Z" fill="#7eb9bc" stroke="#7eb9bc" stroke-width="1.51"/><path d="M725,69L656,81L631,166Z" fill="#acdabc" stroke="#acdabc" stroke-width="1.51"/><path d="M1131,164L954,194L962,331Z" fill="#83a9b4" stroke="#83a9b4" stroke-width="1.51"/><path d="M1064,506L1090,389L962,331Z" fill="#4693b8" stroke="#4693b8" stroke-width="1.51"/><path d="M1203,356L1090,389L1253,555Z" fill="#427eb1" stroke="#427eb1" stroke-width="1.51"/><path d="M434,755L577,894L593,872Z" fill="#56779a" stroke="#56779a" stroke-width="1.51"/><path d="M430,576L369,708L447,656Z" fill="#79a3b3" stroke="#79a3b3" stroke-width="1.51"/><path d="M281,595L369,708L430,576Z" fill="#85acb5" stroke="#85acb5" stroke-width="1.51"/><path d="M954,194L869,126L781,225Z" fill="#91c2bb" stroke="#91c2bb" stroke-width="1.51"/><path d="M725,873L866,882L835,667Z" fill="#3369a6" stroke="#3369a6" stroke-width="1.51"/><path d="M975,724L1103,743L1046,661Z" fill="#255da8" stroke="#255da8" stroke-width="1.51"/><path d="M839,1018L866,882L725,873Z" fill="#255d8c" stroke="#255d8c" stroke-width="1.51"/><path d="M369,708L383,753L434,755Z" fill="#7d91ac" stroke="#7d91ac" stroke-width="1.51"/><path d="M593,872L577,894L725,873Z" fill="#416d91" stroke="#416d91" stroke-width="1.51"/><path d="M463,958L577,894L434,755Z" fill="#5c7691" stroke="#5c7691" stroke-width="1.51"/><path d="M866,882L955,847L835,667Z" fill="#2c62a7" stroke="#2c62a7" stroke-width="1.51"/><path d="M631,166L549,95L562,283Z" fill="#a9dbb8" stroke="#a9dbb8" stroke-width="1.51"/><path d="M725,69L631,166L781,225Z" fill="#9fd5bc" stroke="#9fd5bc" stroke-width="1.51"/><path d="M869,126L725,69L781,225Z" fill="#9dcdbc" stroke="#9dcdbc" stroke-width="1.51"/><path d="M301,336L283,581L430,576Z" fill="#8fc8bc" stroke="#8fc8bc" stroke-width="1.51"/><path d="M178,759L332,890L383,753Z" fill="#888aa3" stroke="#888aa3" stroke-width="1.51"/><path d="M301,336L530,489L501,331Z" fill="#8acfbb" stroke="#8acfbb" stroke-width="1.51"/><path d="M656,81L549,95L631,166Z" fill="#b2deb9" stroke="#b2deb9" stroke-width="1.51"/><path d="M548,10L549,95L656,81Z" fill="#b8e1c0" stroke="#b8e1c0" stroke-width="1.51"/><path d="M283,581L281,595L430,576Z" fill="#8ab7b9" stroke="#8ab7b9" stroke-width="1.51"/><path d="M333,164L301,336L501,331Z" fill="#b4e1b6" stroke="#b4e1b6" stroke-width="1.51"/><path d="M283,581L143,587L281,595Z" fill="#95bab8" stroke="#95bab8" stroke-width="1.51"/><path d="M1029,885L1103,743L975,724Z" fill="#2850a2" stroke="#2850a2" stroke-width="1.51"/><path d="M1046,661L1253,555L1064,506Z" fill="#2570b1" stroke="#2570b1" stroke-width="1.51"/><path d="M725,69L736,15L656,81Z" fill="#abdac5" stroke="#abdac5" stroke-width="1.51"/><path d="M869,126L736,15L725,69Z" fill="#a6d2c3" stroke="#a6d2c3" stroke-width="1.51"/><path d="M983,17L736,15L869,126Z" fill="#a2c9c5" stroke="#a2c9c5" stroke-width="1.51"/><path d="M955,847L1029,885L975,724Z" fill="#25529c" stroke="#25529c" stroke-width="1.51"/><path d="M866,882L1029,885L955,847Z" fill="#1f518f" stroke="#1f518f" stroke-width="1.51"/><path d="M839,1018L1029,885L866,882Z" fill="#1a538a" stroke="#1a538a" stroke-width="1.51"/><path d="M301,336L224,398L283,581Z" fill="#9dd4bc" stroke="#9dd4bc" stroke-width="1.51"/><path d="M242,252L224,398L301,336Z" fill="#b4e0b7" stroke="#b4e0b7" stroke-width="1.51"/><path d="M549,95L333,164L562,283Z" fill="#b8e2b6" stroke="#b8e2b6" stroke-width="1.51"/><path d="M318,92L333,164L549,95Z" fill="#d3edb4" stroke="#d3edb4" stroke-width="1.51"/><path d="M1090,389L1131,164L962,331Z" fill="#6c9bb3" stroke="#6c9bb3" stroke-width="1.51"/><path d="M954,194L983,17L869,126Z" fill="#9cbdb8" stroke="#9cbdb8" stroke-width="1.51"/><path d="M1253,555L1090,389L1064,506Z" fill="#357db3" stroke="#357db3" stroke-width="1.51"/><path d="M666,-93L548,10L656,81Z" fill="#b8e0cc" stroke="#b8e0cc" stroke-width="1.51"/><path d="M332,890L463,958L434,755Z" fill="#6d7c91" stroke="#6d7c91" stroke-width="1.51"/><path d="M697,1146L839,1018L725,873Z" fill="#2a628c" stroke="#2a628c" stroke-width="1.51"/><path d="M332,890L434,755L383,753Z" fill="#7d86a3" stroke="#7d86a3" stroke-width="1.51"/><path d="M862,1102L839,1018L697,1146Z" fill="#265d8c" stroke="#265d8c" stroke-width="1.51"/><path d="M333,164L242,252L301,336Z" fill="#c7e9b5" stroke="#c7e9b5" stroke-width="1.51"/><path d="M1203,356L1131,164L1090,389Z" fill="#6990ae" stroke="#6990ae" stroke-width="1.51"/><path d="M178,759L369,708L281,595Z" fill="#8da1af" stroke="#8da1af" stroke-width="1.51"/><path d="M178,759L383,753L369,708Z" fill="#8995aa" stroke="#8995aa" stroke-width="1.51"/><path d="M1246,691L1253,555L1046,661Z" fill="#275ba7" stroke="#275ba7" stroke-width="1.51"/><path d="M1246,691L1046,661L1103,743Z" fill="#2553a3" stroke="#2553a3" stroke-width="1.51"/><path d="M1060,49L983,17L954,194Z" fill="#9cb5b9" stroke="#9cb5b9" stroke-width="1.51"/><path d="M736,15L666,-93L656,81Z" fill="#b1dcce" stroke="#b1dcce" stroke-width="1.51"/><path d="M1240,749L1246,691L1103,743Z" fill="#26479d" stroke="#26479d" stroke-width="1.51"/><path d="M333,164L318,92L242,252Z" fill="#d7efb3" stroke="#d7efb3" stroke-width="1.51"/><path d="M548,10L318,92L549,95Z" fill="#caeabe" stroke="#caeabe" stroke-width="1.51"/><path d="M1131,164L1060,49L954,194Z" fill="#95abb1" stroke="#95abb1" stroke-width="1.51"/><path d="M224,398L143,587L283,581Z" fill="#9cc8bb" stroke="#9cc8bb" stroke-width="1.51"/><path d="M120,408L143,587L224,398Z" fill="#a5d4be" stroke="#a5d4be" stroke-width="1.51"/><path d="M1266,884L1103,743L1029,885Z" fill="#1f3e8d" stroke="#1f3e8d" stroke-width="1.51"/><path d="M1266,884L1240,749L1103,743Z" fill="#253b95" stroke="#253b95" stroke-width="1.51"/><path d="M1203,356L1248,261L1131,164Z" fill="#788eab" stroke="#788eab" stroke-width="1.51"/><path d="M1131,164L1222,140L1060,49Z" fill="#979fad" stroke="#979fad" stroke-width="1.51"/><path d="M1406,412L1248,261L1203,356Z" fill="#5a7ba4" stroke="#5a7ba4" stroke-width="1.51"/><path d="M143,587L178,759L281,595Z" fill="#97adb2" stroke="#97adb2" stroke-width="1.51"/><path d="M384,-110L240,39L318,92Z" fill="#e8f6c5" stroke="#e8f6c5" stroke-width="1.51"/><path d="M781,-256L666,-93L736,15Z" fill="#add9cf" stroke="#add9cf" stroke-width="1.51"/><path d="M137,261L120,408L224,398Z" fill="#b7e1ba" stroke="#b7e1ba" stroke-width="1.51"/><path d="M137,261L224,398L242,252Z" fill="#c2e5b5" stroke="#c2e5b5" stroke-width="1.51"/><path d="M839,1018L1020,1078L1029,885Z" fill="#1a4c87" stroke="#1a4c87" stroke-width="1.51"/><path d="M697,1146L725,873L577,894Z" fill="#38688b" stroke="#38688b" stroke-width="1.51"/><path d="M240,39L137,261L242,252Z" fill="#dff2b2" stroke="#dff2b2" stroke-width="1.51"/><path d="M1248,261L1222,140L1131,164Z" fill="#8b93aa" stroke="#8b93aa" stroke-width="1.51"/><path d="M143,587L91,635L178,759Z" fill="#9aacb5" stroke="#9aacb5" stroke-width="1.51"/><path d="M-83,532L91,635L143,587Z" fill="#a1c0c6" stroke="#a1c0c6" stroke-width="1.51"/><path d="M20,741L91,635L-82,645Z" fill="#9eabc1" stroke="#9eabc1" stroke-width="1.51"/><path d="M476,1122L697,1146L577,894Z" fill="#466d8a" stroke="#466d8a" stroke-width="1.51"/><path d="M332,890L333,1068L463,958Z" fill="#6d7a87" stroke="#6d7a87" stroke-width="1.51"/><path d="M178,759L259,948L332,890Z" fill="#818390" stroke="#818390" stroke-width="1.51"/><path d="M92,965L259,948L178,759Z" fill="#848389" stroke="#848389" stroke-width="1.51"/><path d="M476,1122L577,894L463,958Z" fill="#537189" stroke="#537189" stroke-width="1.51"/><path d="M1159,-124L1048,-48L1060,49Z" fill="#9fa9c1" stroke="#9fa9c1" stroke-width="1.51"/><path d="M1060,49L1048,-48L983,17Z" fill="#a0b2c4" stroke="#a0b2c4" stroke-width="1.51"/><path d="M933,-239L781,-256L736,15Z" fill="#a8d0ce" stroke="#a8d0ce" stroke-width="1.51"/><path d="M933,1125L1020,1078L839,1018Z" fill="#1a5089" stroke="#1a5089" stroke-width="1.51"/><path d="M933,1125L839,1018L862,1102Z" fill="#1d568b" stroke="#1d568b" stroke-width="1.51"/><path d="M318,92L240,39L242,252Z" fill="#e2f3b2" stroke="#e2f3b2" stroke-width="1.51"/><path d="M384,-110L318,92L548,10Z" fill="#d9f0c7" stroke="#d9f0c7" stroke-width="1.51"/><path d="M697,1146L933,1125L862,1102Z" fill="#235b8c" stroke="#235b8c" stroke-width="1.51"/><path d="M333,1068L476,1122L463,958Z" fill="#647788" stroke="#647788" stroke-width="1.51"/><path d="M1257,1027L1266,884L1029,885Z" fill="#173179" stroke="#173179" stroke-width="1.51"/><path d="M1442,801L1409,628L1246,691Z" fill="#1d3c89" stroke="#1d3c89" stroke-width="1.51"/><path d="M1409,628L1393,464L1253,555Z" fill="#255d9a" stroke="#255d9a" stroke-width="1.51"/><path d="M1253,555L1393,464L1203,356Z" fill="#3b70a8" stroke="#3b70a8" stroke-width="1.51"/><path d="M259,948L333,1068L332,890Z" fill="#767d87" stroke="#767d87" stroke-width="1.51"/><path d="M1248,261L1341,205L1222,140Z" fill="#868aa4" stroke="#868aa4" stroke-width="1.51"/><path d="M1409,628L1253,555L1246,691Z" fill="#25519c" stroke="#25519c" stroke-width="1.51"/><path d="M543,-230L384,-110L548,10Z" fill="#cbeac9" stroke="#cbeac9" stroke-width="1.51"/><path d="M1406,412L1341,205L1248,261Z" fill="#667d9b" stroke="#667d9b" stroke-width="1.51"/><path d="M1222,140L1159,-124L1060,49Z" fill="#9da1bb" stroke="#9da1bb" stroke-width="1.51"/><path d="M1393,464L1406,412L1203,356Z" fill="#44719e" stroke="#44719e" stroke-width="1.51"/><path d="M1266,884L1312,864L1240,749Z" fill="#1e2e85" stroke="#1e2e85" stroke-width="1.51"/><path d="M1393,464L1521,559L1406,412Z" fill="#29618c" stroke="#29618c" stroke-width="1.51"/><path d="M1341,897L1312,864L1266,884Z" fill="#162772" stroke="#162772" stroke-width="1.51"/><path d="M1452,658L1409,628L1442,801Z" fill="#17397e" stroke="#17397e" stroke-width="1.51"/><path d="M91,635L20,741L178,759Z" fill="#9ba1b5" stroke="#9ba1b5" stroke-width="1.51"/><path d="M259,948L283,1098L333,1068Z" fill="#787e87" stroke="#787e87" stroke-width="1.51"/><path d="M-83,532L143,587L120,408Z" fill="#a6cfc8" stroke="#a6cfc8" stroke-width="1.51"/><path d="M92,965L283,1098L259,948Z" fill="#808086" stroke="#808086" stroke-width="1.51"/><path d="M333,1068L283,1098L476,1122Z" fill="#707b87" stroke="#707b87" stroke-width="1.51"/><path d="M1442,801L1246,691L1240,749Z" fill="#22388f" stroke="#22388f" stroke-width="1.51"/><path d="M1257,1027L1341,897L1266,884Z" fill="#152671" stroke="#152671" stroke-width="1.51"/><path d="M666,-93L543,-230L548,10Z" fill="#bde3cb" stroke="#bde3cb" stroke-width="1.51"/><path d="M626,-270L543,-230L666,-93Z" fill="#bae1cc" stroke="#bae1cc" stroke-width="1.51"/><path d="M543,-230L385,-176L384,-110Z" fill="#d5eec8" stroke="#d5eec8" stroke-width="1.51"/><path d="M384,-110L152,-31L240,39Z" fill="#eef8c5" stroke="#eef8c5" stroke-width="1.51"/><path d="M137,261L-20,311L120,408Z" fill="#c2e6c1" stroke="#c2e6c1" stroke-width="1.51"/><path d="M1,124L-20,311L137,261Z" fill="#dff2c2" stroke="#dff2c2" stroke-width="1.51"/><path d="M1,124L137,261L240,39Z" fill="#ebf7b7" stroke="#ebf7b7" stroke-width="1.51"/><path d="M1409,628L1521,559L1393,464Z" fill="#1d568a" stroke="#1d568a" stroke-width="1.51"/><path d="M1442,801L1240,749L1312,864Z" fill="#1e2d83" stroke="#1e2d83" stroke-width="1.51"/><path d="M1372,1127L1257,1027L1020,1078Z" fill="#172d78" stroke="#172d78" stroke-width="1.51"/><path d="M1020,1078L1257,1027L1029,885Z" fill="#163a7e" stroke="#163a7e" stroke-width="1.51"/><path d="M933,-239L736,15L983,17Z" fill="#a4c8cd" stroke="#a4c8cd" stroke-width="1.51"/><path d="M1048,-48L933,-239L983,17Z" fill="#a1b9c8" stroke="#a1b9c8" stroke-width="1.51"/><path d="M1330,40L1159,-124L1222,140Z" fill="#9c96b7" stroke="#9c96b7" stroke-width="1.51"/><path d="M1476,36L1330,40L1341,205Z" fill="#8a8694" stroke="#8a8694" stroke-width="1.51"/><path d="M1341,205L1330,40L1222,140Z" fill="#908c9f" stroke="#908c9f" stroke-width="1.51"/><path d="M283,-252L152,-31L384,-110Z" fill="#edf8c6" stroke="#edf8c6" stroke-width="1.51"/><path d="M1048,-258L933,-239L1048,-48Z" fill="#a1b5c6" stroke="#a1b5c6" stroke-width="1.51"/><path d="M20,741L92,965L178,759Z" fill="#948da5" stroke="#948da5" stroke-width="1.51"/><path d="M781,-256L626,-270L666,-93Z" fill="#b0dcce" stroke="#b0dcce" stroke-width="1.51"/><path d="M543,-230L283,-252L385,-176Z" fill="#dbf1c7" stroke="#dbf1c7" stroke-width="1.51"/><path d="M1440,1046L1442,801L1341,897Z" fill="#0a1f5d" stroke="#0a1f5d" stroke-width="1.51"/><path d="M1341,897L1442,801L1312,864Z" fill="#142670" stroke="#142670" stroke-width="1.51"/><path d="M20,741L-98,905L92,965Z" fill="#8e88a0" stroke="#8e88a0" stroke-width="1.51"/><path d="M-20,311L-83,532L120,408Z" fill="#b3decd" stroke="#b3decd" stroke-width="1.51"/><path d="M1406,412L1483,297L1341,205Z" fill="#5b758e" stroke="#5b758e" stroke-width="1.51"/><path d="M1576,377L1483,297L1406,412Z" fill="#466d8a" stroke="#466d8a" stroke-width="1.51"/><path d="M1521,559L1409,628L1452,658Z" fill="#194985" stroke="#194985" stroke-width="1.51"/><path d="M152,-31L1,124L240,39Z" fill="#f5fbc3" stroke="#f5fbc3" stroke-width="1.51"/><path d="M-20,311L-214,478L-83,532Z" fill="#afdbce" stroke="#afdbce" stroke-width="1.51"/><path d="M-83,532L-82,645L91,635Z" fill="#a2bcc9" stroke="#a2bcc9" stroke-width="1.51"/><path d="M1608,687L1521,559L1452,658Z" fill="#184583" stroke="#184583" stroke-width="1.51"/><path d="M1,124L-76,279L-20,311Z" fill="#dff3c7" stroke="#dff3c7" stroke-width="1.51"/><path d="M781,-256L1048,-258L626,-270Z" fill="#a8d0ce" stroke="#a8d0ce" stroke-width="1.51"/><path d="M933,-239L1048,-258L781,-256Z" fill="#a3c3cc" stroke="#a3c3cc" stroke-width="1.51"/><path d="M1159,-124L1048,-258L1048,-48Z" fill="#9eaac1" stroke="#9eaac1" stroke-width="1.51"/><path d="M1259,-206L1048,-258L1159,-124Z" fill="#9ea1be" stroke="#9ea1be" stroke-width="1.51"/><path d="M626,-270L283,-252L543,-230Z" fill="#ccebc9" stroke="#ccebc9" stroke-width="1.51"/><path d="M385,-176L283,-252L384,-110Z" fill="#e4f5c6" stroke="#e4f5c6" stroke-width="1.51"/><path d="M152,-31L20,-75L1,124Z" fill="#fcfed1" stroke="#fcfed1" stroke-width="1.51"/><path d="M1483,297L1476,36L1341,205Z" fill="#797e88" stroke="#797e88" stroke-width="1.51"/><path d="M1521,559L1576,377L1406,412Z" fill="#2e658d" stroke="#2e658d" stroke-width="1.51"/><path d="M92,965L84,1114L283,1098Z" fill="#848289" stroke="#848289" stroke-width="1.51"/><path d="M283,1098L84,1114L476,1122Z" fill="#787e87" stroke="#787e87" stroke-width="1.51"/><path d="M476,1122L84,1114L697,1146Z" fill="#657787" stroke="#657787" stroke-width="1.51"/><path d="M-133,1115L84,1114L92,965Z" fill="#898497" stroke="#898497" stroke-width="1.51"/><path d="M1310,-164L1259,-206L1159,-124Z" fill="#9d95b9" stroke="#9d95b9" stroke-width="1.51"/><path d="M1310,-164L1159,-124L1330,40Z" fill="#9c92b7" stroke="#9c92b7" stroke-width="1.51"/><path d="M1557,-1L1476,36L1702,60Z" fill="#878493" stroke="#878493" stroke-width="1.51"/><path d="M1419,-116L1310,-164L1330,40Z" fill="#938ba7" stroke="#938ba7" stroke-width="1.51"/><path d="M-82,645L-134,809L20,741Z" fill="#9e9ebd" stroke="#9e9ebd" stroke-width="1.51"/><path d="M-227,614L-134,809L-82,645Z" fill="#9ea7c0" stroke="#9ea7c0" stroke-width="1.51"/><path d="M-227,614L-82,645L-83,532Z" fill="#a2beca" stroke="#a2beca" stroke-width="1.51"/><path d="M96,-178L20,-75L152,-31Z" fill="#fbfecf" stroke="#fbfecf" stroke-width="1.51"/><path d="M-163,157L-191,304L-76,279Z" fill="#ddf2c7" stroke="#ddf2c7" stroke-width="1.51"/><path d="M-134,809L-98,905L20,741Z" fill="#988faf" stroke="#988faf" stroke-width="1.51"/><path d="M1257,1027L1440,1046L1341,897Z" fill="#102367" stroke="#102367" stroke-width="1.51"/><path d="M1442,801L1608,687L1452,658Z" fill="#17357c" stroke="#17357c" stroke-width="1.51"/><path d="M1521,559L1722,514L1576,377Z" fill="#29608c" stroke="#29608c" stroke-width="1.51"/><path d="M1372,1127L1440,1046L1257,1027Z" fill="#0f2265" stroke="#0f2265" stroke-width="1.51"/><path d="M697,1146L1372,1127L933,1125Z" fill="#194784" stroke="#194784" stroke-width="1.51"/><path d="M933,1125L1372,1127L1020,1078Z" fill="#17397d" stroke="#17397d" stroke-width="1.51"/><path d="M1704,756L1608,687L1442,801Z" fill="#172f79" stroke="#172f79" stroke-width="1.51"/><path d="M283,-252L96,-178L152,-31Z" fill="#f6fcc6" stroke="#f6fcc6" stroke-width="1.51"/><path d="M-76,279L-191,304L-20,311Z" fill="#ceebc9" stroke="#ceebc9" stroke-width="1.51"/><path d="M-163,157L-76,279L1,124Z" fill="#eaf7c6" stroke="#eaf7c6" stroke-width="1.51"/><path d="M-191,304L-214,478L-20,311Z" fill="#bde3cb" stroke="#bde3cb" stroke-width="1.51"/><path d="M-56,-23L-113,74L1,124Z" fill="#fbfdce" stroke="#fbfdce" stroke-width="1.51"/><path d="M-56,-23L1,124L20,-75Z" fill="#fffed7" stroke="#fffed7" stroke-width="1.51"/><path d="M-158,-76L-56,-23L-139,-164Z" fill="#ffffd9" stroke="#ffffd9" stroke-width="1.51"/><path d="M1476,36L1419,-116L1330,40Z" fill="#8d879d" stroke="#8d879d" stroke-width="1.51"/><path d="M1310,-164L1512,-205L1259,-206Z" fill="#928ba6" stroke="#928ba6" stroke-width="1.51"/><path d="M-267,306L-163,157L-266,-193Z" fill="#f8fcc9" stroke="#f8fcc9" stroke-width="1.51"/><path d="M-113,74L-163,157L1,124Z" fill="#f5fbc5" stroke="#f5fbc5" stroke-width="1.51"/><path d="M-134,809L-206,845L-98,905Z" fill="#918aa5" stroke="#918aa5" stroke-width="1.51"/><path d="M-214,478L-227,614L-83,532Z" fill="#a5cace" stroke="#a5cace" stroke-width="1.51"/><path d="M-227,614L-206,845L-134,809Z" fill="#9e99bb" stroke="#9e99bb" stroke-width="1.51"/><path d="M-98,905L-133,1115L92,965Z" fill="#898498" stroke="#898498" stroke-width="1.51"/><path d="M1476,36L1557,-1L1419,-116Z" fill="#898498" stroke="#898498" stroke-width="1.51"/><path d="M1702,60L1476,36L1483,297Z" fill="#808186" stroke="#808186" stroke-width="1.51"/><path d="M1726,258L1483,297L1576,377Z" fill="#567288" stroke="#567288" stroke-width="1.51"/><path d="M1440,1046L1577,983L1442,801Z" fill="#081d58" stroke="#081d58" stroke-width="1.51"/><path d="M1660,1095L1577,983L1440,1046Z" fill="#081d58" stroke="#081d58" stroke-width="1.51"/><path d="M-214,478L-267,306L-227,614Z" fill="#acd8ce" stroke="#acd8ce" stroke-width="1.51"/><path d="M-227,614L-262,968L-206,845Z" fill="#9990b2" stroke="#9990b2" stroke-width="1.51"/><path d="M-191,304L-267,306L-214,478Z" fill="#bde4cb" stroke="#bde4cb" stroke-width="1.51"/><path d="M-163,157L-267,306L-191,304Z" fill="#daf0c7" stroke="#daf0c7" stroke-width="1.51"/><path d="M-158,-76L-163,157L-113,74Z" fill="#fbfed0" stroke="#fbfed0" stroke-width="1.51"/><path d="M1608,687L1722,514L1521,559Z" fill="#1a4f88" stroke="#1a4f88" stroke-width="1.51"/><path d="M1704,756L1722,514L1608,687Z" fill="#174181" stroke="#174181" stroke-width="1.51"/><path d="M1722,514L1721,390L1576,377Z" fill="#35678c" stroke="#35678c" stroke-width="1.51"/><path d="M1577,983L1704,756L1442,801Z" fill="#0f2266" stroke="#0f2266" stroke-width="1.51"/><path d="M1557,-1L1589,-47L1419,-116Z" fill="#898498" stroke="#898498" stroke-width="1.51"/><path d="M1419,-116L1512,-205L1310,-164Z" fill="#8c869c" stroke="#8c869c" stroke-width="1.51"/><path d="M1702,60L1589,-47L1557,-1Z" fill="#898497" stroke="#898497" stroke-width="1.51"/><path d="M1721,390L1726,258L1576,377Z" fill="#4b6f89" stroke="#4b6f89" stroke-width="1.51"/><path d="M1722,514L1726,258L1721,390Z" fill="#406b8b" stroke="#406b8b" stroke-width="1.51"/><path d="M84,1114L-133,1115L697,1146Z" fill="#7f8086" stroke="#7f8086" stroke-width="1.51"/><path d="M-262,968L-133,1115L-98,905Z" fill="#898498" stroke="#898498" stroke-width="1.51"/><path d="M-56,-23L-158,-76L-113,74Z" fill="#ffffd9" stroke="#ffffd9" stroke-width="1.51"/><path d="M-139,-164L-56,-23L20,-75Z" fill="#ffffd9" stroke="#ffffd9" stroke-width="1.51"/><path d="M1589,-47L1512,-205L1419,-116Z" fill="#898498" stroke="#898498" stroke-width="1.51"/><path d="M1259,-206L1512,-205L1048,-258Z" fill="#9c92b6" stroke="#9c92b6" stroke-width="1.51"/><path d="M1660,1095L1692,935L1577,983Z" fill="#081d58" stroke="#081d58" stroke-width="1.51"/><path d="M1577,983L1692,935L1704,756Z" fill="#091e5a" stroke="#091e5a" stroke-width="1.51"/><path d="M1704,756L1692,935L1722,514Z" fill="#17327a" stroke="#17327a" stroke-width="1.51"/><path d="M-206,845L-262,968L-98,905Z" fill="#898498" stroke="#898498" stroke-width="1.51"/><path d="M-267,306L-262,968L-227,614Z" fill="#a1b5c7" stroke="#a1b5c7" stroke-width="1.51"/><path d="M96,-178L-139,-164L20,-75Z" fill="#ffffd9" stroke="#ffffd9" stroke-width="1.51"/><path d="M-158,-76L-266,-193L-163,157Z" fill="#ffffd9" stroke="#ffffd9" stroke-width="1.51"/><path d="M-266,-193L-139,-164L96,-178Z" fill="#ffffd9" stroke="#ffffd9" stroke-width="1.51"/><path d="M1726,258L1702,60L1483,297Z" fill="#747c87" stroke="#747c87" stroke-width="1.51"/><path d="M1589,-47L1644,-153L1512,-205Z" fill="#898498" stroke="#898498" stroke-width="1.51"/><path d="M1372,1127L1660,1095L1440,1046Z" fill="#081d58" stroke="#081d58" stroke-width="1.51"/><path d="M-267,306L-264,1074L-262,968Z" fill="#9d94b9" stroke="#9d94b9" stroke-width="1.51"/><path d="M-262,968L-264,1074L-133,1115Z" fill="#898498" stroke="#898498" stroke-width="1.51"/><path d="M1702,60L1644,-153L1589,-47Z" fill="#898498" stroke="#898498" stroke-width="1.51"/><path d="M283,-252L-266,-193L96,-178Z" fill="#fdffd5" stroke="#fdffd5" stroke-width="1.51"/><path d="M-139,-164L-266,-193L-158,-76Z" fill="#ffffd9" stroke="#ffffd9" stroke-width="1.51"/></svg>