<?xml version="1.0" encoding="UTF-8"?>
<svg width="458px" height="265px" viewBox="0 0 458 265" version="1.1" xmlns="http://www.w3.org/2000/svg" xmlns:xlink="http://www.w3.org/1999/xlink">
    <!-- Generator: Sketch 43.2 (39069) - http://www.bohemiancoding.com/sketch -->
    <title>Rectangle 94</title>
    <desc>Created with Sketch.</desc>
    <defs></defs>
    <g id="Website" stroke="none" stroke-width="1" fill="none" fill-rule="evenodd">
        <g id="email-logo-copy" transform="translate(-165.000000, -117.000000)" fill="#1D8CEC">
            <path d="M272.60241,125.287631 C272.60241,120.710499 276.317412,117 280.885896,117 L286.39759,117 L614.721288,117 C619.293494,117 623,120.70188 623,125.281598 L623,155.645485 C623,160.219285 619.301456,163.927083 614.721143,163.927083 C614.721143,163.927083 606.445783,163.927083 600.927711,163.927083 C531.951807,163.927083 476.771084,241.21875 476.771084,326.791667 C482.289157,326.791667 515.39759,326.791667 520.915663,326.791667 C562.301205,326.791667 570.578313,362.677083 570.578313,373.71875 L570.578313,373.724752 C570.578313,378.295045 566.875528,382 562.301205,382 L562.301205,382 L275.365984,382 C270.792157,382 267.452577,378.313412 268.168793,373.794369 C268.168793,373.794369 269.843373,326.791667 316.746988,326.791667 L366.409639,326.791667 C366.409639,326.791667 366.409639,260.745255 291.915663,260.541667 L280.879022,260.541667 C276.307975,260.541667 272.60241,256.842962 272.60241,252.254036 L272.60241,246.739583 L272.60241,197.052083 C272.60241,188.770833 286.39759,188.770833 286.39759,197.052083 L286.39759,246.739583 L291.915663,246.739583 C380.204819,246.739583 380.204819,326.791667 380.204819,326.791667 L380.204819,332.306119 C380.204819,336.883251 376.495845,340.59375 371.929616,340.59375 L316.746988,340.59375 C286.39759,340.59375 283.638554,368.197917 283.638554,368.197917 C283.638554,368.197917 556.783133,369.606621 556.783133,368.197917 C556.783133,362.677083 548.506024,340.59375 520.915663,340.59375 C515.39759,340.59375 471.253012,340.59375 471.253012,340.59375 C466.681691,340.59375 462.975904,336.889153 462.975904,332.316866 C462.975904,332.316866 462.975904,329.552083 462.975904,326.791667 C462.975904,241.21875 512.638554,150.125 600.927711,150.125 C603.686747,150.125 609.204819,150.125 609.204819,150.125 L609.204819,130.522328 L286.39759,130.802083 L286.39759,136.316536 C286.39759,140.893668 282.682588,144.604167 278.114104,144.604167 L272.60241,144.604167 L178.795181,144.604167 C189.831325,219.135417 256.151977,226.447482 256.151977,226.447482 C259.142206,226.982748 261.566265,229.884203 261.566265,232.931119 L261.566265,232.931119 C261.566265,237.508251 257.911608,240.596889 253.443426,239.618467 C253.443426,239.618467 173.277108,230.177083 165,139.083333 L165,139.077331 C165,134.507038 168.703918,130.802083 173.286957,130.802083 L272.60241,130.802083 L272.60241,125.287631 Z" id="Rectangle-94"></path>
        </g>
    </g>
</svg>