<?xml version="1.0" encoding="utf-8"?>
<!-- Generator: Adobe Illustrator 23.0.1, SVG Export Plug-In . SVG Version: 6.00 Build 0)  -->
<svg version="1.1" id="Layer_1" xmlns="http://www.w3.org/2000/svg" xmlns:xlink="http://www.w3.org/1999/xlink" x="0px" y="0px"
	 viewBox="0 0 47.3 47" style="enable-background:new 0 0 47.3 47;" xml:space="preserve">
<style type="text/css">
	.st0{fill:#D00865;}
	.st1{fill:#FFFFFF;}
	.st2{fill:#464646;}
</style>
<title>Logo/Color</title>
<desc>Created with Sketch.</desc>
<g>
	<g id="jumpstart-logo">
		<g id="Logo">
			<g id="Brandmark">
				<path class="st0" d="M0,24.3v-1.6C0.4,10.1,10.9,0,23.7,0c13,0,23.7,10.5,23.7,23.5c0,12.9-10.6,23.5-23.7,23.5
					C10.9,46.9,0.4,36.8,0,24.3z M23.7,43.4c11.1,0,20.1-8.9,20.1-19.9c0-11-9-19.9-20.1-19.9c-11.1,0-20.1,8.9-20.1,19.9
					C3.5,34.4,12.6,43.4,23.7,43.4z M33.7,13.5c1.9,0,3.5,1.6,3.5,3.5c0,1.9-1.6,3.5-3.5,3.5c-1.9,0-3.4-1.4-3.6-3.2v-0.6
					C30.3,14.9,31.9,13.5,33.7,13.5L33.7,13.5z M23.6,13.5h3.5c0,0,0.1,1.3,0,3.3v13.1c0,2-1.6,3.6-3.5,3.6h-3.5V17.1
					C20.1,15.1,21.7,13.5,23.6,13.5L23.6,13.5z M17.1,29.6c0,0.1,0,0.2,0,0.3c0,0.1,0,0.2,0,0.3c-0.1,1.8-1.7,3.2-3.5,3.2
					c-2,0-3.5-1.6-3.5-3.5c0-1.9,1.6-3.5,3.5-3.5C15.4,26.4,17,27.8,17.1,29.6z"/>
			</g>
			<g id="Logotype" transform="translate(56.892857, 17.233333)">
				<path class="st1" d="M5.6,7.8c0,0.7-0.1,1.3-0.2,1.8c-0.2,0.5-0.4,1-0.7,1.3c-0.3,0.4-0.7,0.7-1.2,0.9s-1,0.3-1.7,0.3
					c-0.3,0-0.6,0-0.9-0.1C0.6,12,0.3,12,0,11.9l0.1-1.2c0-0.1,0.1-0.2,0.1-0.3c0.1-0.1,0.2-0.1,0.3-0.1c0.1,0,0.2,0,0.4,0.1
					c0.2,0,0.4,0.1,0.6,0.1c0.3,0,0.6,0,0.9-0.1c0.3-0.1,0.5-0.2,0.7-0.5c0.2-0.2,0.3-0.5,0.4-0.8c0.1-0.3,0.1-0.7,0.1-1.2V0.1h1.9
					L5.6,7.8L5.6,7.8L5.6,7.8z M16.2,10.4c0.5,0,0.9-0.1,1.2-0.2c0.4-0.2,0.7-0.4,0.9-0.6c0.2-0.3,0.4-0.6,0.6-1
					c0.1-0.4,0.2-0.8,0.2-1.3V0.1h1.9v7.1c0,0.7-0.1,1.3-0.3,1.9c-0.2,0.6-0.6,1.1-1,1.5c-0.4,0.4-0.9,0.8-1.5,1
					c-0.6,0.2-1.3,0.4-2,0.4c-0.8,0-1.4-0.1-2-0.4c-0.6-0.2-1.1-0.6-1.5-1c-0.4-0.4-0.7-0.9-1-1.5c-0.2-0.6-0.3-1.2-0.3-1.9V0.1h1.9
					v7.1c0,0.5,0.1,0.9,0.2,1.3c0.1,0.4,0.3,0.7,0.6,1c0.2,0.3,0.6,0.5,0.9,0.6C15.3,10.3,15.7,10.4,16.2,10.4L16.2,10.4z M39.7,0.1
					V12H38V3.8c0-0.1,0-0.3,0-0.4c0-0.2,0-0.3,0-0.5l-3.8,7c-0.2,0.3-0.4,0.4-0.7,0.4h-0.3c-0.3,0-0.5-0.2-0.7-0.4l-3.9-7l0,0.5
					c0,0.2,0,0.3,0,0.4V12H27V0.1h1.4c0.2,0,0.3,0,0.4,0.1c0.1,0,0.2,0.1,0.3,0.3L33,7.3c0.1,0.2,0.2,0.3,0.2,0.5
					c0.1,0.2,0.1,0.3,0.2,0.5c0.1-0.2,0.1-0.4,0.2-0.5c0.1-0.2,0.2-0.3,0.2-0.5l3.8-6.9c0.1-0.2,0.2-0.2,0.3-0.3
					c0.1,0,0.2-0.1,0.4-0.1L39.7,0.1L39.7,0.1z M49.5,0.1c0.8,0,1.5,0.1,2,0.3c0.6,0.2,1,0.4,1.4,0.8c0.4,0.3,0.6,0.7,0.8,1.2
					c0.2,0.5,0.3,1,0.3,1.5c0,0.6-0.1,1.1-0.3,1.6c-0.2,0.5-0.5,0.9-0.9,1.2c-0.4,0.3-0.9,0.6-1.4,0.8c-0.6,0.2-1.2,0.3-2,0.3h-1.8
					v4.3h-1.9V0.1L49.5,0.1L49.5,0.1z M49.5,6.2c0.4,0,0.8-0.1,1.1-0.2c0.3-0.1,0.6-0.3,0.8-0.5c0.2-0.2,0.4-0.4,0.5-0.7
					c0.1-0.3,0.2-0.6,0.2-1c0-0.3,0-0.7-0.2-0.9c-0.1-0.3-0.3-0.5-0.5-0.7C51.3,2,51,1.9,50.7,1.8c-0.3-0.1-0.7-0.2-1.2-0.2h-1.8
					v4.5L49.5,6.2L49.5,6.2z M65.4,2.1c0,0.1-0.1,0.2-0.2,0.2c-0.1,0-0.2,0.1-0.2,0.1c-0.1,0-0.3-0.1-0.4-0.1
					c-0.2-0.1-0.3-0.2-0.5-0.3c-0.2-0.1-0.4-0.2-0.7-0.3c-0.3-0.1-0.6-0.1-0.9-0.1c-0.3,0-0.6,0-0.9,0.1C61.4,1.8,61.2,1.9,61,2
					c-0.2,0.2-0.3,0.3-0.4,0.5c-0.1,0.2-0.1,0.4-0.1,0.7c0,0.3,0.1,0.6,0.2,0.8c0.2,0.2,0.4,0.4,0.6,0.5c0.3,0.1,0.6,0.3,0.9,0.4
					c0.3,0.1,0.7,0.2,1,0.3c0.4,0.1,0.7,0.3,1,0.4C64.7,5.8,65,6,65.3,6.2c0.3,0.2,0.5,0.5,0.6,0.9c0.2,0.3,0.2,0.8,0.2,1.2
					c0,0.5-0.1,1-0.3,1.5c-0.2,0.5-0.5,0.9-0.8,1.2s-0.8,0.6-1.3,0.8c-0.5,0.2-1.1,0.3-1.7,0.3c-0.4,0-0.8,0-1.1-0.1
					c-0.7-0.1-1.4-0.4-2-0.8c-0.3-0.2-0.5-0.4-0.8-0.6l0.6-0.9c0-0.1,0.1-0.1,0.2-0.2c0.1,0,0.2-0.1,0.2-0.1c0.1,0,0.3,0.1,0.4,0.2
					c0.2,0.1,0.3,0.2,0.6,0.4c0.2,0.1,0.5,0.3,0.8,0.4c0.3,0.1,0.7,0.2,1.1,0.2c0.7,0,1.2-0.2,1.6-0.5c0.4-0.3,0.6-0.8,0.6-1.4
					c0-0.3-0.1-0.6-0.2-0.8c-0.2-0.2-0.4-0.4-0.6-0.5c-0.3-0.2-0.6-0.3-0.9-0.4c-0.3-0.1-0.7-0.2-1-0.3c-0.3-0.1-0.7-0.3-1-0.4
					c-0.3-0.2-0.6-0.4-0.9-0.6c-0.3-0.2-0.5-0.5-0.6-0.9s-0.2-0.8-0.2-1.3c0-0.4,0.1-0.8,0.2-1.2c0.2-0.4,0.4-0.8,0.7-1.1
					c0.3-0.3,0.7-0.6,1.2-0.7c0.5-0.2,1-0.3,1.6-0.3c0.7,0,1.3,0.1,1.9,0.3c0.6,0.2,1.1,0.5,1.5,0.9L65.4,2.1L65.4,2.1z M79.7,1.7
					H76V12H74V1.7h-3.7V0.1h9.4L79.7,1.7L79.7,1.7z M93.4,12h-1.5c-0.1,0-0.3,0-0.4-0.1c-0.1-0.1-0.2-0.2-0.2-0.3l-1-2.6h-5.1
					l-1,2.6c0,0.1-0.1,0.2-0.2,0.3c-0.1,0.1-0.3,0.1-0.4,0.1H82l4.7-11.9h2L93.4,12L93.4,12z M89.7,7.5l-1.6-4.3
					c-0.1-0.3-0.3-0.8-0.4-1.3c-0.1,0.3-0.1,0.5-0.2,0.7c-0.1,0.2-0.1,0.4-0.2,0.6l-1.6,4.3L89.7,7.5L89.7,7.5z M107.1,12h-1.7
					c-0.3,0-0.6-0.1-0.7-0.4l-2.8-4c-0.1-0.1-0.2-0.2-0.3-0.3c-0.2-0.1-0.3-0.1-0.5-0.1H100V12h-1.9V0.1h3.5c0.8,0,1.5,0.1,2,0.2
					c0.6,0.2,1,0.4,1.4,0.7c0.4,0.3,0.6,0.6,0.8,1.1c0.2,0.4,0.3,0.9,0.3,1.4c0,0.4-0.1,0.8-0.2,1.2c-0.1,0.4-0.3,0.7-0.5,1
					c-0.2,0.3-0.5,0.5-0.9,0.8c-0.3,0.2-0.7,0.4-1.2,0.5c0.2,0.1,0.4,0.3,0.6,0.6L107.1,12L107.1,12z M101.5,5.8
					c0.4,0,0.8-0.1,1.2-0.2c0.3-0.1,0.6-0.3,0.8-0.4c0.2-0.2,0.4-0.4,0.5-0.7c0.1-0.3,0.2-0.6,0.2-0.9c0-0.6-0.2-1.1-0.6-1.5
					c-0.4-0.3-1.1-0.5-2-0.5H100v4.2L101.5,5.8L101.5,5.8z M119.7,1.7H116V12H114V1.7h-3.7V0.1h9.4V1.7z"/>
				<path class="st2" d="M5.6,7.8c0,0.7-0.1,1.3-0.2,1.8c-0.2,0.5-0.4,1-0.7,1.3c-0.3,0.4-0.7,0.7-1.2,0.9s-1,0.3-1.7,0.3
					c-0.3,0-0.6,0-0.9-0.1C0.6,12,0.3,12,0,11.9l0.1-1.2c0-0.1,0.1-0.2,0.1-0.3c0.1-0.1,0.2-0.1,0.3-0.1c0.1,0,0.2,0,0.4,0.1
					c0.2,0,0.4,0.1,0.6,0.1c0.3,0,0.6,0,0.9-0.1c0.3-0.1,0.5-0.2,0.7-0.5c0.2-0.2,0.3-0.5,0.4-0.8c0.1-0.3,0.1-0.7,0.1-1.2V0.1h1.9
					L5.6,7.8L5.6,7.8L5.6,7.8z M16.2,10.4c0.5,0,0.9-0.1,1.2-0.2c0.4-0.2,0.7-0.4,0.9-0.6c0.2-0.3,0.4-0.6,0.6-1
					c0.1-0.4,0.2-0.8,0.2-1.3V0.1h1.9v7.1c0,0.7-0.1,1.3-0.3,1.9c-0.2,0.6-0.6,1.1-1,1.5c-0.4,0.4-0.9,0.8-1.5,1
					c-0.6,0.2-1.3,0.4-2,0.4c-0.8,0-1.4-0.1-2-0.4c-0.6-0.2-1.1-0.6-1.5-1c-0.4-0.4-0.7-0.9-1-1.5c-0.2-0.6-0.3-1.2-0.3-1.9V0.1h1.9
					v7.1c0,0.5,0.1,0.9,0.2,1.3c0.1,0.4,0.3,0.7,0.6,1c0.2,0.3,0.6,0.5,0.9,0.6C15.3,10.3,15.7,10.4,16.2,10.4L16.2,10.4z M39.7,0.1
					V12H38V3.8c0-0.1,0-0.3,0-0.4c0-0.2,0-0.3,0-0.5l-3.8,7c-0.2,0.3-0.4,0.4-0.7,0.4h-0.3c-0.3,0-0.5-0.2-0.7-0.4l-3.9-7l0,0.5
					c0,0.2,0,0.3,0,0.4V12H27V0.1h1.4c0.2,0,0.3,0,0.4,0.1c0.1,0,0.2,0.1,0.3,0.3L33,7.3c0.1,0.2,0.2,0.3,0.2,0.5
					c0.1,0.2,0.1,0.3,0.2,0.5c0.1-0.2,0.1-0.4,0.2-0.5c0.1-0.2,0.2-0.3,0.2-0.5l3.8-6.9c0.1-0.2,0.2-0.2,0.3-0.3
					c0.1,0,0.2-0.1,0.4-0.1L39.7,0.1L39.7,0.1z M49.5,0.1c0.8,0,1.5,0.1,2,0.3c0.6,0.2,1,0.4,1.4,0.8c0.4,0.3,0.6,0.7,0.8,1.2
					c0.2,0.5,0.3,1,0.3,1.5c0,0.6-0.1,1.1-0.3,1.6c-0.2,0.5-0.5,0.9-0.9,1.2c-0.4,0.3-0.9,0.6-1.4,0.8c-0.6,0.2-1.2,0.3-2,0.3h-1.8
					v4.3h-1.9V0.1L49.5,0.1L49.5,0.1z M49.5,6.2c0.4,0,0.8-0.1,1.1-0.2c0.3-0.1,0.6-0.3,0.8-0.5c0.2-0.2,0.4-0.4,0.5-0.7
					c0.1-0.3,0.2-0.6,0.2-1c0-0.3,0-0.7-0.2-0.9c-0.1-0.3-0.3-0.5-0.5-0.7C51.3,2,51,1.9,50.7,1.8c-0.3-0.1-0.7-0.2-1.2-0.2h-1.8
					v4.5L49.5,6.2L49.5,6.2z M65.4,2.1c0,0.1-0.1,0.2-0.2,0.2c-0.1,0-0.2,0.1-0.2,0.1c-0.1,0-0.3-0.1-0.4-0.1
					c-0.2-0.1-0.3-0.2-0.5-0.3c-0.2-0.1-0.4-0.2-0.7-0.3c-0.3-0.1-0.6-0.1-0.9-0.1c-0.3,0-0.6,0-0.9,0.1C61.4,1.8,61.2,1.9,61,2
					c-0.2,0.2-0.3,0.3-0.4,0.5c-0.1,0.2-0.1,0.4-0.1,0.7c0,0.3,0.1,0.6,0.2,0.8c0.2,0.2,0.4,0.4,0.6,0.5c0.3,0.1,0.6,0.3,0.9,0.4
					c0.3,0.1,0.7,0.2,1,0.3c0.4,0.1,0.7,0.3,1,0.4C64.7,5.8,65,6,65.3,6.2c0.3,0.2,0.5,0.5,0.6,0.9c0.2,0.3,0.2,0.8,0.2,1.2
					c0,0.5-0.1,1-0.3,1.5c-0.2,0.5-0.5,0.9-0.8,1.2s-0.8,0.6-1.3,0.8c-0.5,0.2-1.1,0.3-1.7,0.3c-0.4,0-0.8,0-1.1-0.1
					c-0.7-0.1-1.4-0.4-2-0.8c-0.3-0.2-0.5-0.4-0.8-0.6l0.6-0.9c0-0.1,0.1-0.1,0.2-0.2c0.1,0,0.2-0.1,0.2-0.1c0.1,0,0.3,0.1,0.4,0.2
					c0.2,0.1,0.3,0.2,0.6,0.4c0.2,0.1,0.5,0.3,0.8,0.4c0.3,0.1,0.7,0.2,1.1,0.2c0.7,0,1.2-0.2,1.6-0.5c0.4-0.3,0.6-0.8,0.6-1.4
					c0-0.3-0.1-0.6-0.2-0.8c-0.2-0.2-0.4-0.4-0.6-0.5c-0.3-0.2-0.6-0.3-0.9-0.4c-0.3-0.1-0.7-0.2-1-0.3c-0.3-0.1-0.7-0.3-1-0.4
					c-0.3-0.2-0.6-0.4-0.9-0.6c-0.3-0.2-0.5-0.5-0.6-0.9s-0.2-0.8-0.2-1.3c0-0.4,0.1-0.8,0.2-1.2c0.2-0.4,0.4-0.8,0.7-1.1
					c0.3-0.3,0.7-0.6,1.2-0.7c0.5-0.2,1-0.3,1.6-0.3c0.7,0,1.3,0.1,1.9,0.3c0.6,0.2,1.1,0.5,1.5,0.9L65.4,2.1L65.4,2.1z M79.7,1.7
					H76V12H74V1.7h-3.7V0.1h9.4L79.7,1.7L79.7,1.7z M93.4,12h-1.5c-0.1,0-0.3,0-0.4-0.1c-0.1-0.1-0.2-0.2-0.2-0.3l-1-2.6h-5.1
					l-1,2.6c0,0.1-0.1,0.2-0.2,0.3c-0.1,0.1-0.3,0.1-0.4,0.1H82l4.7-11.9h2L93.4,12L93.4,12z M89.7,7.5l-1.6-4.3
					c-0.1-0.3-0.3-0.8-0.4-1.3c-0.1,0.3-0.1,0.5-0.2,0.7c-0.1,0.2-0.1,0.4-0.2,0.6l-1.6,4.3L89.7,7.5L89.7,7.5z M107.1,12h-1.7
					c-0.3,0-0.6-0.1-0.7-0.4l-2.8-4c-0.1-0.1-0.2-0.2-0.3-0.3c-0.2-0.1-0.3-0.1-0.5-0.1H100V12h-1.9V0.1h3.5c0.8,0,1.5,0.1,2,0.2
					c0.6,0.2,1,0.4,1.4,0.7c0.4,0.3,0.6,0.6,0.8,1.1c0.2,0.4,0.3,0.9,0.3,1.4c0,0.4-0.1,0.8-0.2,1.2c-0.1,0.4-0.3,0.7-0.5,1
					c-0.2,0.3-0.5,0.5-0.9,0.8c-0.3,0.2-0.7,0.4-1.2,0.5c0.2,0.1,0.4,0.3,0.6,0.6L107.1,12L107.1,12z M101.5,5.8
					c0.4,0,0.8-0.1,1.2-0.2c0.3-0.1,0.6-0.3,0.8-0.4c0.2-0.2,0.4-0.4,0.5-0.7c0.1-0.3,0.2-0.6,0.2-0.9c0-0.6-0.2-1.1-0.6-1.5
					c-0.4-0.3-1.1-0.5-2-0.5H100v4.2L101.5,5.8L101.5,5.8z M119.7,1.7H116V12H114V1.7h-3.7V0.1h9.4V1.7z"/>
			</g>
		</g>
	</g>
</g>
</svg>
