<?xml version="1.0" encoding="utf-8"?>
<!-- Generator: Adobe Illustrator 23.0.1, SVG Export Plug-In . SVG Version: 6.00 Build 0)  -->
<svg version="1.1" id="Layer_1" xmlns="http://www.w3.org/2000/svg" xmlns:xlink="http://www.w3.org/1999/xlink" x="0px" y="0px"
	 viewBox="0 0 80.8 81.8" style="enable-background:new 0 0 80.8 81.8;" xml:space="preserve">
<style type="text/css">
	.st0{fill:#FFE473;}
	.st1{fill:#03244D;}
	.st2{fill:#DD550C;}
	.st3{fill:#FF8D43;}
	.st4{fill:#FFB68D;}
	.st5{fill:#FFAE1F;}
	.st6{fill:#F9B26B;}
	.st7{fill:#EFC075;}
	.st8{fill:#FFD385;}
	.st9{fill:#FFA748;}
</style>
<g>
	<g>
		<path class="st0" d="M29.8,35.8c-0.1-0.2-0.2-0.5-0.4-0.6c0-0.1-0.1-0.2-0.3-0.2l0,0l0,0c-0.1,0-0.2,0-0.3,0.2
			c-0.2,0.2-0.3,0.4-0.3,0.7c0,0.4,0.5,0.7,0.9,0.7C29.7,36.5,29.9,36.1,29.8,35.8z M29.3,36.1c-0.2,0.1-0.4-0.1-0.4-0.3
			c0-0.1,0-0.3,0.2-0.3c0.1,0.1,0.2,0.2,0.3,0.3C29.3,35.8,29.4,36.1,29.3,36.1z"/>
		<polygon class="st1" points="40.4,60.4 38.7,60.4 35.5,58.6 34.4,59.5 38.1,62.7 38.3,64.5 40.4,65 		"/>
		<polygon class="st1" points="34.4,59.5 32.6,57.1 32.6,58.9 35.6,62.5 36.6,62.5 37.6,64.3 39.7,65.7 39.5,67.6 33.7,68.9 
			40.4,68.3 40.4,65 38.1,64.5 38.1,62.7 		"/>
		<polygon class="st1" points="40.4,7.5 36.4,5.3 32.5,7.5 		"/>
		<polygon class="st1" points="38,18.1 33.5,21.2 27,19.4 		"/>
		<polygon class="st1" points="40.4,9.5 27.9,11.1 36,8.4 		"/>
		<polygon class="st2" points="38,18.1 40.4,14.4 40.4,19.4 		"/>
		<polygon class="st1" points="27,19.4 23.7,28.1 19.8,26.2 		"/>
		<polygon class="st1" points="19.7,18.6 15.7,16.4 15.3,20.7 		"/>
		<polygon class="st1" points="15.7,16.4 15.7,9.9 10.4,7.7 		"/>
		<polygon class="st1" points="23.7,28.1 23.7,33.6 20.3,33.6 		"/>
		<polygon class="st1" points="23.9,37.4 20.3,39.8 20.3,36.5 		"/>
		<polygon class="st1" points="18.2,33.6 17,29.1 14.8,36.6 		"/>
		<polygon class="st1" points="12.9,30.2 12.9,35.5 9.7,36.2 		"/>
		<polygon class="st1" points="25.3,42.9 22.2,41.6 23.1,45.3 		"/>
		<polygon class="st1" points="15.3,43.4 15.5,50.7 20.6,53 		"/>
		<polygon class="st1" points="11.1,48.7 15.8,54 12.9,62.6 		"/>
		<polygon class="st1" points="33.7,68.9 27.7,68.4 30,71.6 		"/>
		<polygon class="st1" points="40.4,7.5 38.7,6.5 40.4,4.4 		"/>
		<polygon class="st2" points="40.4,9.5 40.4,14.4 37.7,9.9 		"/>
		<polygon class="st1" points="27,19.4 27.9,15.2 22,19.7 		"/>
		<polygon class="st1" points="15.7,16.4 15.3,20.7 13.3,17.7 		"/>
		<polygon class="st1" points="12.9,30.2 14.8,29.7 12.9,35.5 		"/>
		<polygon class="st1" points="14.8,36.6 16.8,39.8 18.2,33.6 		"/>
		<polygon class="st1" points="23.9,37.4 22.2,41.6 20.3,39.8 		"/>
		<polygon class="st1" points="12.9,35.5 11.3,40.4 9.7,36.2 		"/>
		<polygon class="st1" points="16.8,39.8 15.3,43.4 18.6,49.4 		"/>
		<polygon class="st1" points="23,57.6 21.4,60.3 24.7,65.5 		"/>
		<polygon class="st1" points="37.8,12.5 34.1,12 27,19.4 		"/>
		<polygon class="st2" points="12.9,30.2 17,24.4 17,29.1 		"/>
		<polygon class="st2" points="11.3,40.4 11.1,48.7 9,47.5 		"/>
		<polygon class="st2" points="18.6,49.4 25.7,49.6 18.1,46.5 		"/>
		<polygon class="st2" points="15.8,54 17.2,58.3 12.9,62.6 		"/>
		<polygon class="st2" points="23,57.6 17.2,58.3 21.4,60.3 		"/>
		<polygon class="st2" points="23.7,28.1 29.1,32.1 27.1,28.4 		"/>
		<polygon class="st2" points="10.4,7.7 13.3,17.7 15.7,16.4 		"/>
		<polygon class="st1" points="13.3,17.7 11.6,20.8 10.5,16.8 		"/>
		<polygon class="st1" points="9.7,36.2 11.3,40.4 9,47.5 		"/>
		<polygon class="st1" points="14.8,36.6 15.3,43.4 16.8,39.8 		"/>
		<polygon class="st1" points="17.2,58.3 20.6,53 23,57.6 		"/>
		<polygon class="st1" points="20.6,53 30,46.8 24.9,54 		"/>
		<polygon class="st2" points="11.1,48.7 9,55.9 12.9,62.6 		"/>
		<polygon class="st1" points="22,19.7 19.8,26.2 17,24.4 		"/>
		<polygon class="st2" points="27,19.4 19.8,26.2 22,19.7 		"/>
		<polygon class="st1" points="40.4,14.4 37.7,9.9 38,18.1 		"/>
		<polygon class="st1" points="26.4,58.9 30.7,59.1 31.3,62.4 		"/>
		<polygon class="st1" points="33.8,39.4 33.3,45.7 30.2,42.2 		"/>
		<polygon class="st1" points="36.9,41.4 33.6,34.3 38,33.6 		"/>
		<polygon class="st1" points="36.9,41.4 36.9,52.6 34.6,49.4 		"/>
		<polygon class="st1" points="34.6,49.4 32,52.9 36.9,52.6 		"/>
		<polygon class="st1" points="32,52.9 32.6,57.1 36.9,52.6 		"/>
		<polygon class="st2" points="30.2,42.2 30,46.8 33.3,45.7 		"/>
		<polygon class="st2" points="40.4,29.1 38,33.6 40.4,38.9 		"/>
		<polygon class="st2" points="30,46.8 32,52.9 24.9,54 		"/>
		<polygon class="st2" points="33.3,45.7 34.6,49.4 30,46.8 		"/>
		<polygon class="st2" points="33.8,39.4 36.9,41.4 33.3,45.7 		"/>
		<polygon class="st3" points="36.9,41.4 33.6,34.3 33.8,39.4 		"/>
		<polygon class="st3" points="30,46.8 34.6,49.4 32,52.9 		"/>
		<polygon class="st3" points="25.3,42.9 28,40 30.2,42.2 		"/>
		<polygon class="st3" points="32,52.9 30.7,59.1 32.6,57.1 		"/>
		<polygon class="st4" points="28,40 23.9,37.4 25.3,42.9 		"/>
		<polygon class="st2" points="32,52.9 26.4,58.9 24.9,54 		"/>
		<polygon class="st2" points="38,33.6 35.8,26.7 33.6,34.3 		"/>
		<polygon class="st5" points="38,33.6 38.4,28 40.4,29.1 		"/>
		<polygon class="st2" points="30.2,42.2 30,46.8 25.3,42.9 		"/>
		<polygon class="st6" points="32,52.9 30.7,59.1 26.4,58.9 		"/>
		<polygon class="st6" points="30,46.8 25.3,42.9 25.7,49.6 		"/>
		<polygon class="st6" points="23.9,37.4 23.7,33.6 20.3,33.6 		"/>
		<polygon class="st1" points="35.8,26.7 40.4,29.1 40.4,19.4 		"/>
		<polygon class="st7" points="40.4,19.4 38,18.1 35.8,26.7 		"/>
		<polygon class="st7" points="36.9,52.6 35.5,58.6 34.4,59.5 32.6,57.1 		"/>
		<polygon class="st7" points="23.9,37.4 25.3,42.9 22.2,41.6 		"/>
		<polygon class="st7" points="34.1,12 27.9,15.2 27,19.4 		"/>
		<polygon class="st7" points="19.8,26.2 17,29.1 17,24.4 		"/>
		<polygon class="st3" points="38,18.1 35.8,26.7 33.5,21.2 		"/>
		<polygon class="st3" points="19.8,26.2 23.7,28.1 17,29.1 		"/>
		<polygon class="st3" points="20.3,33.6 20.3,39.8 18.2,33.6 		"/>
		<polygon class="st3" points="17,29.1 12.8,35.7 14.8,29.7 		"/>
		<polygon class="st3" points="27,19.4 37.8,12.5 38,18.1 		"/>
		<path class="st3" d="M26.4,58.9"/>
		<polygon class="st3" points="24.7,65.5 31.3,62.4 26.4,58.9 		"/>
		<polygon class="st3" points="17,24.4 11.4,25.9 12.9,30.2 		"/>
		<polygon class="st3" points="19.7,18.6 22,19.7 15.3,20.7 		"/>
		<polygon class="st3" points="20.3,33.6 17,29.1 18.2,33.6 		"/>
		<polygon class="st3" points="33.3,25.2 33.6,34.3 30.6,35.1 		"/>
		<polygon class="st3" points="20.3,39.8 16.8,39.8 18.2,33.6 		"/>
		<polygon class="st3" points="25.3,42.9 25.7,49.6 23.1,45.3 		"/>
		<polygon class="st3" points="4.2,63.8 12.9,62.6 9,55.9 		"/>
		<polygon class="st1" points="21.4,60.3 16.8,65.4 17.2,58.3 		"/>
		<polygon class="st3" points="17,24.4 16.9,24.3 15.3,20.7 11.4,25.9 		"/>
		<polygon class="st3" points="12.9,30.2 6.4,32.4 9.7,36.2 		"/>
		<polygon class="st2" points="11.4,25.9 12.9,30.2 6.4,32.4 		"/>
		<polygon class="st3" points="20.3,33.6 17,29.1 23.7,28.1 		"/>
		<polygon class="st3" points="25.4,34.9 23.9,37.4 23.7,33.6 		"/>
		<polygon class="st3" points="30.6,35.1 33.6,34.3 33.8,39.4 		"/>
		<polygon class="st3" points="30.6,35.1 29.1,32.1 27.4,33.2 		"/>
		<polygon class="st3" points="33.3,25.2 33.5,21.2 35.8,26.7 		"/>
		<polygon class="st3" points="27,19.4 27.1,28.4 23.7,28.1 		"/>
		<polygon class="st3" points="37.8,12.5 27.9,11.1 37.7,9.9 		"/>
		<polygon class="st3" points="24.9,54 26.4,58.9 23,57.6 		"/>
		<polygon class="st3" points="9,47.5 9,55.9 0,54.5 		"/>
		<polygon class="st8" points="27,19.4 31.6,24 27.1,28.4 		"/>
		<polygon class="st3" points="33.5,21.2 31.6,24 33.3,25.2 		"/>
		<polygon class="st3" points="33.3,25.2 35.8,26.7 33.6,34.3 		"/>
		<polygon class="st3" points="29.1,26.4 29.1,32.1 30.9,28.7 		"/>
		<polygon class="st3" points="6.4,32.4 9.7,36.2 4.1,38.8 		"/>
		<polygon class="st1" points="4.1,38.8 9,47.5 1.4,47.9 		"/>
		<polygon class="st2" points="20.3,39.8 18.1,46.5 16.8,39.8 		"/>
		<polygon class="st3" points="18.1,46.5 22.2,41.6 23.1,45.3 		"/>
		<polygon class="st3" points="15.3,43.4 11.3,40.4 11.1,48.7 		"/>
		<polygon class="st3" points="24.9,54 20.6,53 23,57.6 		"/>
		<polygon class="st2" points="23,57.6 26.4,58.9 24.7,65.5 		"/>
		<polygon class="st2" points="9.7,36.2 9,47.5 4.1,38.8 		"/>
		<polygon class="st3" points="11.3,40.4 14.8,36.6 15.3,43.4 		"/>
		<polygon class="st3" points="15.3,43.4 15.5,50.7 11.1,48.7 		"/>
		<polygon class="st3" points="22.2,41.6 20.3,39.8 18.1,46.5 		"/>
		<polygon class="st3" points="23.1,45.3 25.7,49.6 18.1,46.5 		"/>
		<polygon class="st3" points="28,40 30.7,39 30.2,42.2 		"/>
		<polygon class="st3" points="23.7,28.1 25.7,31.8 23.7,33.6 		"/>
		<polygon class="st3" points="33.5,21.2 27,19.4 31.6,24 		"/>
		<polygon class="st3" points="2.9,47.8 4.1,51.3 9,47.5 		"/>
		<polygon class="st3" points="32.6,57.1 32.6,58.9 35.6,62.5 31.3,62.4 30.7,59.1 		"/>
		<polygon class="st3" points="25.7,49.6 20.6,53 18.6,49.4 		"/>
		<polygon class="st3" points="20.6,53 15.8,54 11.1,48.7 		"/>
		<polygon class="st1" points="9,55.9 4.2,63.8 2.9,54.9 		"/>
		<polygon class="st3" points="14.8,36.6 12.8,35.7 17,29.1 		"/>
		<polygon class="st3" points="29.1,32.1 30.9,28.7 30.6,35.1 		"/>
		<polygon class="st3" points="27.4,33.2 25.7,31.8 23.7,33.6 		"/>
		<polygon class="st3" points="30.9,28.7 33.3,25.2 29.1,26.4 		"/>
		<polygon class="st3" points="11.1,48.7 9,47.5 9,55.9 		"/>
		<polygon class="st3" points="17.2,58.3 16.8,65.4 12.9,62.6 		"/>
		<polygon class="st1" points="12.9,62.6 6.4,68.9 6.4,63.5 		"/>
		<polygon class="st3" points="31.3,62.4 27.7,68.4 33.7,68.9 		"/>
		<polygon class="st3" points="35.6,62.5 33.7,68.9 37.6,64.3 36.6,62.5 		"/>
		<polygon class="st3" points="33.8,70.7 32.8,77.6 40.4,72.9 		"/>
		<polygon class="st3" points="40.4,72.9 40.4,81.8 37.8,78.3 		"/>
		<polygon class="st1" points="33.3,25.2 30.6,35.1 30.9,28.7 		"/>
		<polygon class="st3" points="20.3,33.6 23.9,37.4 20.3,36.5 		"/>
		<polygon class="st3" points="12.8,35.7 11.3,40.4 14.8,36.6 		"/>
		<polygon class="st3" points="20.6,53 17.2,58.3 15.8,54 		"/>
		<polygon class="st3" points="37.6,64.3 39.7,65.7 39.5,67.6 33.7,68.9 		"/>
		<polygon class="st1" points="40.4,72.9 36.5,81 34.6,76.4 		"/>
		<polygon class="st3" points="33.8,70.7 32.8,77.6 29.5,72.9 		"/>
		<polygon class="st3" points="21.4,60.3 24.7,65.5 16.8,65.4 		"/>
		<polygon class="st3" points="12.9,62.6 11.5,68.8 16.8,65.4 		"/>
		<polygon class="st3" points="31.3,62.4 27.7,68.4 24.7,65.5 		"/>
		<polygon class="st2" points="31.3,62.4 35.6,62.5 33.7,68.9 		"/>
		<polygon class="st1" points="33.8,70.7 40.4,68.3 40.4,72.9 		"/>
		<polygon class="st3" points="33.8,70.7 33.7,68.9 25.8,74.8 		"/>
		<polygon class="st3" points="24.7,65.5 15.6,71.6 16.8,65.4 		"/>
		<polygon class="st3" points="12.9,62.6 12.1,66.5 6.4,68.9 		"/>
		<polygon class="st2" points="33.8,70.7 33.7,68.9 40.4,68.3 		"/>
		<polygon class="st2" points="30,71.6 27.7,68.4 25.8,74.8 		"/>
		<polygon class="st2" points="24.7,65.5 25.3,70.6 15.6,71.6 		"/>
		<polygon class="st2" points="15.3,20.7 11.6,20.8 13.3,23.3 		"/>
		<polygon class="st3" points="13.3,17.7 5.8,12.5 10.4,7.7 		"/>
		<polygon class="st2" points="10.4,7.7 12.6,0 15.7,9.9 		"/>
		<polygon class="st2" points="12.6,0 20.3,3.8 16.5,0.8 		"/>
		<polygon class="st1" points="11.4,25.9 4.5,31.8 6.4,32.4 		"/>
		<polygon class="st1" points="27.7,68.4 24.7,65.5 25.8,74.8 		"/>
		<polygon class="st2" points="23.7,28.1 25.7,31.8 29.1,32.1 		"/>
		<polygon class="st2" points="29.1,26.4 29.1,32.1 27.1,28.4 		"/>
		<polygon class="st2" points="33.3,25.2 31.6,24 29.1,26.4 		"/>
		<polygon class="st2" points="13.3,17.7 15.3,20.7 11.6,20.8 		"/>
		<polygon class="st2" points="15.7,9.9 19.7,18.6 15.7,16.4 		"/>
		<polygon class="st3" points="25.4,34.9 28,40 23.9,37.4 		"/>
		<polygon class="st3" points="28,40 30.7,39 27.4,38.9 		"/>
		<polygon class="st3" points="30.7,39 31.6,41.1 30.2,42.2 		"/>
		<polygon class="st3" points="29.1,32.1 25.7,31.8 27.4,33.2 		"/>
		<g>
			<path class="st1" d="M29.8,34.4l-2.4-1.2l-3.8,0.4l1.7,1.4c0,0-1.2,5.2,5.3,4l0.9,2.1l2.2-1.7L30.4,35L29.8,34.4z"/>
			<g>
				<path class="st1" d="M28.6,35.6c1,0,1.9,0.6,2.3,1.4c0.1-0.2,0.1-0.5,0.1-0.7c0-1.2-1.1-2.2-2.4-2.2s-2.4,1-2.4,2.2
					c0,0.3,0.1,0.5,0.1,0.7C26.7,36.2,27.5,35.6,28.6,35.6z"/>
				<path class="st2" d="M28.6,38.4c1,0,1.9-0.6,2.3-1.4c-0.3-0.8-1.2-1.4-2.3-1.4c-1,0-1.9,0.6-2.3,1.4
					C26.7,37.8,27.5,38.4,28.6,38.4z"/>
			</g>
			<ellipse class="st1" cx="29.1" cy="35.7" rx="0.7" ry="0.8"/>
		</g>
		<polygon class="st3" points="38.4,28 35.8,26.7 38,33.6 		"/>
		<polygon class="st3" points="35.5,58.6 40.4,56.5 38.7,60.4 		"/>
		<polygon class="st3" points="38.7,60.4 40.4,56.5 40.4,60.4 		"/>
		<polygon class="st2" points="40.4,56.5 36.9,52.6 35.5,58.6 		"/>
		<polygon class="st1" points="36.9,52.6 40.4,46.8 40.4,56.5 		"/>
		<polygon class="st3" points="36.9,52.6 36.9,41.4 40.4,46.8 		"/>
		<polygon class="st3" points="36.9,41.4 34.6,49.4 33.3,45.7 		"/>
		<polygon class="st2" points="36.9,41.4 40.4,38.9 40.4,43.9 		"/>
		<polygon class="st1" points="36.9,41.4 38,33.6 40.4,38.9 		"/>
		<polygon class="st3" points="36.9,41.4 40.4,46.8 40.4,43.9 		"/>
		<polygon class="st6" points="27.9,11.1 25.5,7.6 23.7,12.7 		"/>
		<polygon class="st9" points="27.9,11.1 32.5,7.5 25.5,7.6 		"/>
		<polygon class="st2" points="32.5,7.5 40.4,9.5 40.4,7.5 		"/>
		<polygon class="st2" points="27.9,11.1 36,8.4 32.5,7.5 		"/>
		<polygon class="st8" points="32.5,7.5 36.4,5.3 25.5,7.6 		"/>
		<polygon class="st8" points="36.4,5.3 40.4,4.4 38.7,6.5 		"/>
		<polygon class="st3" points="27.9,15.2 27.9,11.1 34.1,12 		"/>
		<polygon class="st8" points="22,19.7 17,24.4 15.3,20.7 		"/>
		<polygon class="st8" points="22,19.7 23.7,12.7 19.7,18.6 		"/>
		<polygon class="st3" points="27.9,11.1 22,19.7 23.7,12.7 		"/>
		<polygon class="st3" points="27.9,15.2 26.3,13.5 27.9,11.1 		"/>
		<polygon class="st3" points="27.9,15.2 25.1,15.2 22,19.7 		"/>
		<polygon class="st1" points="27.9,15.2 26.3,13.5 25.1,15.2 		"/>
		<polygon class="st8" points="23.7,12.7 20.3,3.8 25.5,7.6 		"/>
		<polygon class="st3" points="10.4,7.7 7.3,2.7 12.6,0 		"/>
		<polygon class="st2" points="10.4,7.7 7.3,2.7 5.8,12.5 		"/>
		<polygon class="st3" points="20.3,3.8 15.7,9.9 12.6,0 		"/>
		<polygon class="st1" points="20.3,3.8 23.7,12.7 15.7,9.9 		"/>
		<polygon class="st3" points="23.7,12.7 19.7,18.6 15.7,9.9 		"/>
	</g>
</g>
<g>
	<g>
		<path class="st0" d="M51.4,36.6c0.4,0,0.9-0.3,0.9-0.7c0-0.3-0.1-0.5-0.3-0.7C51.9,35,51.8,35,51.7,35l0,0l0,0
			c-0.2,0-0.3,0.1-0.3,0.2c-0.2,0.1-0.3,0.4-0.4,0.6C50.9,36.1,51.1,36.5,51.4,36.6z M51.4,35.8c0.1-0.1,0.2-0.2,0.3-0.3
			c0.2,0,0.2,0.2,0.2,0.3c0,0.2-0.2,0.4-0.4,0.3C51.4,36.1,51.5,35.8,51.4,35.8z"/>
		<polygon class="st1" points="40.4,65 42.5,64.5 42.7,62.7 46.4,59.5 45.3,58.6 42.1,60.4 40.4,60.4 		"/>
		<polygon class="st1" points="42.7,62.7 42.7,64.5 40.4,65 40.4,68.3 47.1,68.9 41.3,67.6 41.1,65.7 43.2,64.3 44.2,62.5 
			45.2,62.5 48.2,58.9 48.2,57.1 46.4,59.5 		"/>
		<polygon class="st1" points="48.3,7.5 44.4,5.3 40.4,7.5 		"/>
		<polygon class="st1" points="53.8,19.4 47.3,21.2 42.8,18.1 		"/>
		<polygon class="st1" points="44.8,8.4 52.9,11.1 40.4,9.5 		"/>
		<polygon class="st2" points="40.4,19.4 40.4,14.4 42.8,18.1 		"/>
		<polygon class="st1" points="61,26.2 57.1,28.1 53.8,19.4 		"/>
		<polygon class="st1" points="65.5,20.7 65.1,16.4 61.1,18.6 		"/>
		<polygon class="st1" points="70.4,7.7 65.1,9.9 65.1,16.4 		"/>
		<polygon class="st1" points="60.5,33.6 57.1,33.6 57.1,28.1 		"/>
		<polygon class="st1" points="60.5,36.5 60.5,39.8 56.9,37.4 		"/>
		<polygon class="st1" points="66,36.6 63.8,29.1 62.6,33.6 		"/>
		<polygon class="st1" points="71.1,36.2 67.9,35.5 67.9,30.2 		"/>
		<polygon class="st1" points="57.7,45.3 58.6,41.6 55.5,42.9 		"/>
		<polygon class="st1" points="60.2,53 65.3,50.7 65.5,43.4 		"/>
		<polygon class="st1" points="67.9,62.6 65,54 69.7,48.7 		"/>
		<polygon class="st1" points="50.8,71.6 53.1,68.4 47.1,68.9 		"/>
		<polygon class="st1" points="40.4,4.4 42.1,6.5 40.4,7.5 		"/>
		<polygon class="st2" points="43.1,9.9 40.4,14.4 40.4,9.5 		"/>
		<polygon class="st1" points="58.8,19.7 52.9,15.2 53.8,19.4 		"/>
		<polygon class="st1" points="67.5,17.7 65.5,20.7 65.1,16.4 		"/>
		<polygon class="st1" points="67.9,35.5 66,29.7 67.9,30.2 		"/>
		<polygon class="st1" points="62.6,33.6 64,39.8 66,36.6 		"/>
		<polygon class="st1" points="60.5,39.8 58.6,41.6 56.9,37.4 		"/>
		<polygon class="st1" points="71.1,36.2 69.5,40.4 67.9,35.5 		"/>
		<polygon class="st1" points="62.2,49.4 65.5,43.4 64,39.8 		"/>
		<polygon class="st1" points="56.1,65.5 59.4,60.3 57.8,57.6 		"/>
		<polygon class="st1" points="53.8,19.4 46.7,12 43,12.5 		"/>
		<polygon class="st2" points="63.8,29.1 63.8,24.4 67.9,30.2 		"/>
		<polygon class="st2" points="71.8,47.5 69.7,48.7 69.5,40.4 		"/>
		<polygon class="st2" points="62.7,46.5 55.1,49.6 62.2,49.4 		"/>
		<polygon class="st2" points="67.9,62.6 63.6,58.3 65,54 		"/>
		<polygon class="st2" points="59.4,60.3 63.6,58.3 57.8,57.6 		"/>
		<polygon class="st2" points="53.7,28.4 51.7,32.1 57.1,28.1 		"/>
		<polygon class="st2" points="65.1,16.4 67.5,17.7 70.4,7.7 		"/>
		<polygon class="st1" points="70.3,16.8 69.2,20.8 67.5,17.7 		"/>
		<polygon class="st1" points="71.8,47.5 69.5,40.4 71.1,36.2 		"/>
		<polygon class="st1" points="64,39.8 65.5,43.4 66,36.6 		"/>
		<polygon class="st1" points="57.8,57.6 60.2,53 63.6,58.3 		"/>
		<polygon class="st1" points="55.9,54 50.8,46.8 60.2,53 		"/>
		<polygon class="st2" points="67.9,62.6 71.8,55.9 69.7,48.7 		"/>
		<polygon class="st1" points="63.8,24.4 61,26.2 58.8,19.7 		"/>
		<polygon class="st2" points="58.8,19.7 61,26.2 53.8,19.4 		"/>
		<polygon class="st1" points="42.8,18.1 43.1,9.9 40.4,14.4 		"/>
		<polygon class="st1" points="49.5,62.4 50.1,59.1 54.4,58.9 		"/>
		<polygon class="st1" points="50.6,42.2 47.5,45.7 47,39.4 		"/>
		<polygon class="st1" points="42.8,33.6 47.2,34.3 43.9,41.4 		"/>
		<polygon class="st1" points="46.2,49.4 43.9,52.6 43.9,41.4 		"/>
		<polygon class="st1" points="43.9,52.6 48.8,52.9 46.2,49.4 		"/>
		<polygon class="st1" points="43.9,52.6 48.2,57.1 48.8,52.9 		"/>
		<polygon class="st2" points="47.5,45.7 50.8,46.8 50.6,42.2 		"/>
		<polygon class="st2" points="40.4,38.9 42.8,33.6 40.4,29.1 		"/>
		<polygon class="st2" points="55.9,54 48.8,52.9 50.8,46.8 		"/>
		<polygon class="st2" points="50.8,46.8 46.2,49.4 47.5,45.7 		"/>
		<polygon class="st2" points="47.5,45.7 43.9,41.4 47,39.4 		"/>
		<polygon class="st3" points="47,39.4 47.2,34.3 43.9,41.4 		"/>
		<polygon class="st3" points="48.8,52.9 46.2,49.4 50.8,46.8 		"/>
		<polygon class="st3" points="50.6,42.2 52.8,40 55.5,42.9 		"/>
		<polygon class="st3" points="48.2,57.1 50.1,59.1 48.8,52.9 		"/>
		<polygon class="st4" points="55.5,42.9 56.9,37.4 52.8,40 		"/>
		<polygon class="st2" points="55.9,54 54.4,58.9 48.8,52.9 		"/>
		<polygon class="st2" points="47.2,34.3 45,26.7 42.8,33.6 		"/>
		<polygon class="st5" points="40.4,29.1 42.4,28 42.8,33.6 		"/>
		<polygon class="st2" points="55.5,42.9 50.8,46.8 50.6,42.2 		"/>
		<polygon class="st6" points="54.4,58.9 50.1,59.1 48.8,52.9 		"/>
		<polygon class="st6" points="55.1,49.6 55.5,42.9 50.8,46.8 		"/>
		<polygon class="st6" points="60.5,33.6 57.1,33.6 56.9,37.4 		"/>
		<polygon class="st1" points="40.4,19.4 40.4,29.1 45,26.7 		"/>
		<polygon class="st7" points="45,26.7 42.8,18.1 40.4,19.4 		"/>
		<polygon class="st7" points="48.2,57.1 46.4,59.5 45.3,58.6 43.9,52.6 		"/>
		<polygon class="st7" points="58.6,41.6 55.5,42.9 56.9,37.4 		"/>
		<polygon class="st7" points="53.8,19.4 52.9,15.2 46.7,12 		"/>
		<polygon class="st7" points="63.8,24.4 63.8,29.1 61,26.2 		"/>
		<polygon class="st3" points="47.3,21.2 45,26.7 42.8,18.1 		"/>
		<polygon class="st3" points="63.8,29.1 57.1,28.1 61,26.2 		"/>
		<polygon class="st3" points="62.6,33.6 60.5,39.8 60.5,33.6 		"/>
		<polygon class="st3" points="66,29.7 68,35.7 63.8,29.1 		"/>
		<polygon class="st3" points="42.8,18.1 43,12.5 53.8,19.4 		"/>
		<path class="st3" d="M54.4,58.9"/>
		<polygon class="st3" points="54.4,58.9 49.5,62.4 56.1,65.5 		"/>
		<polygon class="st3" points="67.9,30.2 69.4,25.9 63.8,24.4 		"/>
		<polygon class="st3" points="65.5,20.7 58.8,19.7 61.1,18.6 		"/>
		<polygon class="st3" points="62.6,33.6 63.8,29.1 60.5,33.6 		"/>
		<polygon class="st3" points="50.2,35.1 47.2,34.3 47.5,25.2 		"/>
		<polygon class="st3" points="62.6,33.6 64,39.8 60.5,39.8 		"/>
		<polygon class="st3" points="57.7,45.3 55.1,49.6 55.5,42.9 		"/>
		<polygon class="st3" points="71.8,55.9 67.9,62.6 76.6,63.8 		"/>
		<polygon class="st1" points="63.6,58.3 64,65.4 59.4,60.3 		"/>
		<polygon class="st3" points="69.4,25.9 65.5,20.7 63.9,24.3 63.8,24.4 		"/>
		<polygon class="st3" points="71.1,36.2 74.4,32.4 67.9,30.2 		"/>
		<polygon class="st2" points="74.4,32.4 67.9,30.2 69.4,25.9 		"/>
		<polygon class="st3" points="57.1,28.1 63.8,29.1 60.5,33.6 		"/>
		<polygon class="st3" points="57.1,33.6 56.9,37.4 55.4,34.9 		"/>
		<polygon class="st3" points="47,39.4 47.2,34.3 50.2,35.1 		"/>
		<polygon class="st3" points="53.4,33.2 51.7,32.1 50.2,35.1 		"/>
		<polygon class="st3" points="45,26.7 47.3,21.2 47.5,25.2 		"/>
		<polygon class="st3" points="57.1,28.1 53.7,28.4 53.8,19.4 		"/>
		<polygon class="st3" points="43.1,9.9 52.9,11.1 43,12.5 		"/>
		<polygon class="st3" points="57.8,57.6 54.4,58.9 55.9,54 		"/>
		<polygon class="st3" points="80.8,54.5 71.8,55.9 71.8,47.5 		"/>
		<polygon class="st8" points="53.7,28.4 49.2,24 53.8,19.4 		"/>
		<polygon class="st3" points="47.5,25.2 49.2,24 47.3,21.2 		"/>
		<polygon class="st3" points="47.2,34.3 45,26.7 47.5,25.2 		"/>
		<polygon class="st3" points="49.9,28.7 51.7,32.1 51.7,26.4 		"/>
		<polygon class="st3" points="76.7,38.8 71.1,36.2 74.4,32.4 		"/>
		<polygon class="st1" points="79.4,47.9 71.8,47.5 76.7,38.8 		"/>
		<polygon class="st2" points="64,39.8 62.7,46.5 60.5,39.8 		"/>
		<polygon class="st3" points="57.7,45.3 58.6,41.6 62.7,46.5 		"/>
		<polygon class="st3" points="69.7,48.7 69.5,40.4 65.5,43.4 		"/>
		<polygon class="st3" points="57.8,57.6 60.2,53 55.9,54 		"/>
		<polygon class="st2" points="56.1,65.5 54.4,58.9 57.8,57.6 		"/>
		<polygon class="st2" points="76.7,38.8 71.8,47.5 71.1,36.2 		"/>
		<polygon class="st3" points="65.5,43.4 66,36.6 69.5,40.4 		"/>
		<polygon class="st3" points="69.7,48.7 65.3,50.7 65.5,43.4 		"/>
		<polygon class="st3" points="62.7,46.5 60.5,39.8 58.6,41.6 		"/>
		<polygon class="st3" points="62.7,46.5 55.1,49.6 57.7,45.3 		"/>
		<polygon class="st3" points="50.6,42.2 50.1,39 52.8,40 		"/>
		<polygon class="st3" points="57.1,33.6 55.1,31.8 57.1,28.1 		"/>
		<polygon class="st3" points="49.2,24 53.8,19.4 47.3,21.2 		"/>
		<polygon class="st3" points="71.8,47.5 76.7,51.3 77.9,47.8 		"/>
		<polygon class="st3" points="50.1,59.1 49.5,62.4 45.2,62.5 48.2,58.9 48.2,57.1 		"/>
		<polygon class="st3" points="62.2,49.4 60.2,53 55.1,49.6 		"/>
		<polygon class="st3" points="69.7,48.7 65,54 60.2,53 		"/>
		<polygon class="st1" points="77.9,54.9 76.6,63.8 71.8,55.9 		"/>
		<polygon class="st3" points="63.8,29.1 68,35.7 66,36.6 		"/>
		<polygon class="st3" points="50.2,35.1 49.9,28.7 51.7,32.1 		"/>
		<polygon class="st3" points="57.1,33.6 55.1,31.8 53.4,33.2 		"/>
		<polygon class="st3" points="51.7,26.4 47.5,25.2 49.9,28.7 		"/>
		<polygon class="st3" points="71.8,55.9 71.8,47.5 69.7,48.7 		"/>
		<polygon class="st3" points="67.9,62.6 64,65.4 63.6,58.3 		"/>
		<polygon class="st1" points="74.4,63.5 74.4,68.9 67.9,62.6 		"/>
		<polygon class="st3" points="47.1,68.9 53.1,68.4 49.5,62.4 		"/>
		<polygon class="st3" points="44.2,62.5 43.2,64.3 47.1,68.9 45.2,62.5 		"/>
		<polygon class="st3" points="40.4,72.9 48,77.6 47,70.7 		"/>
		<polygon class="st3" points="43,78.3 40.4,81.8 40.4,72.9 		"/>
		<polygon class="st1" points="49.9,28.7 50.2,35.1 47.5,25.2 		"/>
		<polygon class="st3" points="60.5,36.5 56.9,37.4 60.5,33.6 		"/>
		<polygon class="st3" points="66,36.6 69.5,40.4 68,35.7 		"/>
		<polygon class="st3" points="65,54 63.6,58.3 60.2,53 		"/>
		<polygon class="st3" points="47.1,68.9 41.3,67.6 41.1,65.7 43.2,64.3 		"/>
		<polygon class="st1" points="46.2,76.4 44.3,81 40.4,72.9 		"/>
		<polygon class="st3" points="51.3,72.9 48,77.6 47,70.7 		"/>
		<polygon class="st3" points="64,65.4 56.1,65.5 59.4,60.3 		"/>
		<polygon class="st3" points="64,65.4 69.3,68.8 67.9,62.6 		"/>
		<polygon class="st3" points="56.1,65.5 53.1,68.4 49.5,62.4 		"/>
		<polygon class="st2" points="47.1,68.9 45.2,62.5 49.5,62.4 		"/>
		<polygon class="st1" points="40.4,72.9 40.4,68.3 47,70.7 		"/>
		<polygon class="st3" points="55,74.8 47.1,68.9 47,70.7 		"/>
		<polygon class="st3" points="64,65.4 65.2,71.6 56.1,65.5 		"/>
		<polygon class="st3" points="74.4,68.9 68.7,66.5 67.9,62.6 		"/>
		<polygon class="st2" points="40.4,68.3 47.1,68.9 47,70.7 		"/>
		<polygon class="st2" points="55,74.8 53.1,68.4 50.8,71.6 		"/>
		<polygon class="st2" points="65.2,71.6 55.5,70.6 56.1,65.5 		"/>
		<polygon class="st2" points="67.5,23.3 69.2,20.8 65.5,20.7 		"/>
		<polygon class="st3" points="70.4,7.7 75,12.5 67.5,17.7 		"/>
		<polygon class="st2" points="65.1,9.9 68.2,0 70.4,7.7 		"/>
		<polygon class="st2" points="64.3,0.8 60.5,3.8 68.2,0 		"/>
		<polygon class="st1" points="74.4,32.4 76.3,31.8 69.4,25.9 		"/>
		<polygon class="st1" points="55,74.8 56.1,65.5 53.1,68.4 		"/>
		<polygon class="st2" points="51.7,32.1 55.1,31.8 57.1,28.1 		"/>
		<polygon class="st2" points="53.7,28.4 51.7,32.1 51.7,26.4 		"/>
		<polygon class="st2" points="51.7,26.4 49.2,24 47.5,25.2 		"/>
		<polygon class="st2" points="69.2,20.8 65.5,20.7 67.5,17.7 		"/>
		<polygon class="st2" points="65.1,16.4 61.1,18.6 65.1,9.9 		"/>
		<polygon class="st3" points="56.9,37.4 52.8,40 55.4,34.9 		"/>
		<polygon class="st3" points="53.4,38.9 50.1,39 52.8,40 		"/>
		<polygon class="st3" points="50.6,42.2 49.2,41.1 50.1,39 		"/>
		<polygon class="st3" points="53.4,33.2 55.1,31.8 51.7,32.1 		"/>
		<g>
			<path class="st1" d="M50.4,35l-3.3,4.4l2.2,1.7l0.9-2.1c6.5,1.2,5.3-4,5.3-4l1.7-1.4l-3.8-0.4L51,34.4L50.4,35z"/>
			<g>
				<path class="st1" d="M54.5,37c0-0.2,0.1-0.4,0.1-0.7c0-1.2-1.1-2.2-2.4-2.2s-2.4,1-2.4,2.2c0,0.2,0,0.5,0.1,0.7
					c0.4-0.8,1.3-1.4,2.3-1.4C53.3,35.6,54.1,36.2,54.5,37z"/>
				<path class="st2" d="M54.5,37c-0.4-0.8-1.3-1.4-2.3-1.4c-1.1,0-2,0.6-2.3,1.4c0.4,0.8,1.3,1.4,2.3,1.4
					C53.3,38.4,54.1,37.8,54.5,37z"/>
			</g>
			<ellipse class="st1" cx="51.7" cy="35.7" rx="0.7" ry="0.8"/>
		</g>
		<polygon class="st3" points="42.8,33.6 45,26.7 42.4,28 		"/>
		<polygon class="st3" points="42.1,60.4 40.4,56.5 45.3,58.6 		"/>
		<polygon class="st3" points="40.4,60.4 40.4,56.5 42.1,60.4 		"/>
		<polygon class="st2" points="45.3,58.6 43.9,52.6 40.4,56.5 		"/>
		<polygon class="st1" points="40.4,56.5 40.4,46.8 43.9,52.6 		"/>
		<polygon class="st3" points="40.4,46.8 43.9,41.4 43.9,52.6 		"/>
		<polygon class="st3" points="47.5,45.7 46.2,49.4 43.9,41.4 		"/>
		<polygon class="st2" points="40.4,43.9 40.4,38.9 43.9,41.4 		"/>
		<polygon class="st1" points="40.4,38.9 42.8,33.6 43.9,41.4 		"/>
		<polygon class="st3" points="40.4,43.9 40.4,46.8 43.9,41.4 		"/>
		<polygon class="st6" points="57.1,12.7 55.3,7.6 52.9,11.1 		"/>
		<polygon class="st9" points="55.3,7.6 48.3,7.5 52.9,11.1 		"/>
		<polygon class="st2" points="40.4,7.5 40.4,9.5 48.3,7.5 		"/>
		<polygon class="st2" points="48.3,7.5 44.8,8.4 52.9,11.1 		"/>
		<polygon class="st8" points="55.3,7.6 44.4,5.3 48.3,7.5 		"/>
		<polygon class="st8" points="42.1,6.5 40.4,4.4 44.4,5.3 		"/>
		<polygon class="st3" points="46.7,12 52.9,11.1 52.9,15.2 		"/>
		<polygon class="st8" points="65.5,20.7 63.8,24.4 58.8,19.7 		"/>
		<polygon class="st8" points="61.1,18.6 57.1,12.7 58.8,19.7 		"/>
		<polygon class="st3" points="57.1,12.7 58.8,19.7 52.9,11.1 		"/>
		<polygon class="st3" points="52.9,11.1 54.5,13.5 52.9,15.2 		"/>
		<polygon class="st3" points="58.8,19.7 55.7,15.2 52.9,15.2 		"/>
		<polygon class="st1" points="55.7,15.2 54.5,13.5 52.9,15.2 		"/>
		<polygon class="st8" points="55.3,7.6 60.5,3.8 57.1,12.7 		"/>
		<polygon class="st3" points="68.2,0 73.5,2.7 70.4,7.7 		"/>
		<polygon class="st2" points="75,12.5 73.5,2.7 70.4,7.7 		"/>
		<polygon class="st3" points="68.2,0 65.1,9.9 60.5,3.8 		"/>
		<polygon class="st1" points="65.1,9.9 57.1,12.7 60.5,3.8 		"/>
		<polygon class="st3" points="65.1,9.9 61.1,18.6 57.1,12.7 		"/>
	</g>
</g>
</svg>
